<svg xmlns="http://www.w3.org/2000/svg" viewBox="0 0 48 48" role="img" aria-hidden="true" focusable="false"><line x1="7.0" y1="7" x2="7.0" y2="41" stroke="#fff" stroke-width="1.8"/><line x1="7" y1="7.0" x2="41" y2="7.0" stroke="#fff" stroke-width="1.8"/><line x1="12.7" y1="7" x2="12.7" y2="41" stroke="#fff" stroke-width="0.8"/><line x1="7" y1="12.7" x2="41" y2="12.7" stroke="#fff" stroke-width="0.8"/><line x1="18.3" y1="7" x2="18.3" y2="41" stroke="#fff" stroke-width="1.8"/><line x1="7" y1="18.3" x2="41" y2="18.3" stroke="#fff" stroke-width="1.8"/><line x1="24.0" y1="7" x2="24.0" y2="41" stroke="#fff" stroke-width="0.8"/><line x1="7" y1="24.0" x2="41" y2="24.0" stroke="#fff" stroke-width="0.8"/><line x1="29.7" y1="7" x2="29.7" y2="41" stroke="#fff" stroke-width="1.8"/><line x1="7" y1="29.7" x2="41" y2="29.7" stroke="#fff" stroke-width="1.8"/><line x1="35.3" y1="7" x2="35.3" y2="41" stroke="#fff" stroke-width="0.8"/><line x1="7" y1="35.3" x2="41" y2="35.3" stroke="#fff" stroke-width="0.8"/><line x1="41.0" y1="7" x2="41.0" y2="41" stroke="#fff" stroke-width="1.8"/><line x1="7" y1="41.0" x2="41" y2="41.0" stroke="#fff" stroke-width="1.8"/><rect x="13.9" y="13.9" width="3.2" height="3.2" fill="#fff"/><rect x="30.9" y="25.2" width="3.2" height="3.2" fill="#fff"/></svg>
